<mxfile host="app.diagrams.net" modified="2023-12-03T21:45:30.807Z" agent="Mozilla/5.0 (Windows NT 10.0; Win64; x64) AppleWebKit/537.36 (KHTML, like Gecko) Chrome/119.0.0.0 Safari/537.36" etag="Tpsc_DRFt5-N9g1SCRVJ" version="22.1.5" type="device">
  <diagram name="Σελίδα-1" id="6WYXhI_abr2xgV3dOfeP">
    <mxGraphModel dx="1290" dy="534" grid="1" gridSize="10" guides="1" tooltips="1" connect="1" arrows="1" fold="1" page="1" pageScale="1" pageWidth="827" pageHeight="1169" math="0" shadow="0">
      <root>
        <mxCell id="0" />
        <mxCell id="1" parent="0" />
        <mxCell id="-3nJj3HJ-Dyh-Vzukbkr-1" value="Name = GR-NET&lt;br&gt;Origin = AS24940&lt;br&gt;IP = 195.201.0.0/16" style="ellipse;whiteSpace=wrap;html=1;fillColor=#B9E0A5;" vertex="1" parent="1">
          <mxGeometry x="341" y="220" width="154" height="80" as="geometry" />
        </mxCell>
        <mxCell id="-3nJj3HJ-Dyh-Vzukbkr-2" value="Name = AUTH&lt;br style=&quot;border-color: var(--border-color);&quot;&gt;Origin = AS5470&lt;br style=&quot;border-color: var(--border-color);&quot;&gt;IP =&amp;nbsp;155.207.0.0/16" style="ellipse;whiteSpace=wrap;html=1;fillColor=#67AB9F;" vertex="1" parent="1">
          <mxGeometry x="574" y="310" width="140" height="80" as="geometry" />
        </mxCell>
        <mxCell id="-3nJj3HJ-Dyh-Vzukbkr-3" value="Name = UOA&lt;br style=&quot;border-color: var(--border-color);&quot;&gt;Origin = AS8643&lt;br style=&quot;border-color: var(--border-color);&quot;&gt;IP =&amp;nbsp;195.134.64.0/18" style="ellipse;whiteSpace=wrap;html=1;fillColor=#67AB9F;" vertex="1" parent="1">
          <mxGeometry x="574" y="140" width="140" height="80" as="geometry" />
        </mxCell>
        <mxCell id="-3nJj3HJ-Dyh-Vzukbkr-4" value="Name = NTUA&lt;br style=&quot;border-color: var(--border-color);&quot;&gt;Origin = AS3323&lt;br style=&quot;border-color: var(--border-color);&quot;&gt;IP =&amp;nbsp;147.102.0.0/16" style="ellipse;whiteSpace=wrap;html=1;fillColor=#67AB9F;" vertex="1" parent="1">
          <mxGeometry x="350" y="60" width="136" height="80" as="geometry" />
        </mxCell>
        <mxCell id="-3nJj3HJ-Dyh-Vzukbkr-5" value="Name = DUTH&lt;br style=&quot;border-color: var(--border-color);&quot;&gt;Origin = AS8253&lt;br style=&quot;border-color: var(--border-color);&quot;&gt;IP = 83.212.128.0/21" style="ellipse;whiteSpace=wrap;html=1;fillColor=#67AB9F;" vertex="1" parent="1">
          <mxGeometry x="114" y="310" width="140" height="80" as="geometry" />
        </mxCell>
        <mxCell id="-3nJj3HJ-Dyh-Vzukbkr-6" value="Name = UNIPI&lt;br style=&quot;border-color: var(--border-color);&quot;&gt;Origin = AS12402&lt;br style=&quot;border-color: var(--border-color);&quot;&gt;IP =&amp;nbsp;195.201.224.0/24" style="ellipse;whiteSpace=wrap;html=1;fillColor=#67AB9F;" vertex="1" parent="1">
          <mxGeometry x="114" y="140" width="150" height="80" as="geometry" />
        </mxCell>
        <mxCell id="-3nJj3HJ-Dyh-Vzukbkr-13" value="" style="endArrow=none;html=1;rounded=0;entryX=0.011;entryY=0.617;entryDx=0;entryDy=0;entryPerimeter=0;exitX=1;exitY=0;exitDx=0;exitDy=0;" edge="1" parent="1" source="-3nJj3HJ-Dyh-Vzukbkr-1" target="-3nJj3HJ-Dyh-Vzukbkr-3">
          <mxGeometry width="50" height="50" relative="1" as="geometry">
            <mxPoint x="454" y="270" as="sourcePoint" />
            <mxPoint x="504" y="220" as="targetPoint" />
          </mxGeometry>
        </mxCell>
        <mxCell id="-3nJj3HJ-Dyh-Vzukbkr-14" value="" style="endArrow=none;html=1;rounded=0;entryX=0;entryY=1;entryDx=0;entryDy=0;exitX=1;exitY=0;exitDx=0;exitDy=0;" edge="1" parent="1" source="-3nJj3HJ-Dyh-Vzukbkr-5" target="-3nJj3HJ-Dyh-Vzukbkr-1">
          <mxGeometry width="50" height="50" relative="1" as="geometry">
            <mxPoint x="454" y="270" as="sourcePoint" />
            <mxPoint x="504" y="220" as="targetPoint" />
          </mxGeometry>
        </mxCell>
        <mxCell id="-3nJj3HJ-Dyh-Vzukbkr-15" value="" style="endArrow=none;html=1;rounded=0;entryX=1;entryY=1;entryDx=0;entryDy=0;exitX=0;exitY=0;exitDx=0;exitDy=0;" edge="1" parent="1" source="-3nJj3HJ-Dyh-Vzukbkr-1" target="-3nJj3HJ-Dyh-Vzukbkr-6">
          <mxGeometry width="50" height="50" relative="1" as="geometry">
            <mxPoint x="454" y="270" as="sourcePoint" />
            <mxPoint x="504" y="220" as="targetPoint" />
          </mxGeometry>
        </mxCell>
        <mxCell id="-3nJj3HJ-Dyh-Vzukbkr-16" value="" style="endArrow=none;html=1;rounded=0;entryX=0;entryY=0;entryDx=0;entryDy=0;exitX=1;exitY=1;exitDx=0;exitDy=0;" edge="1" parent="1" source="-3nJj3HJ-Dyh-Vzukbkr-1" target="-3nJj3HJ-Dyh-Vzukbkr-2">
          <mxGeometry width="50" height="50" relative="1" as="geometry">
            <mxPoint x="454" y="270" as="sourcePoint" />
            <mxPoint x="504" y="220" as="targetPoint" />
          </mxGeometry>
        </mxCell>
        <mxCell id="-3nJj3HJ-Dyh-Vzukbkr-17" value="" style="endArrow=none;html=1;rounded=0;entryX=0.5;entryY=1;entryDx=0;entryDy=0;exitX=0.5;exitY=0;exitDx=0;exitDy=0;" edge="1" parent="1" source="-3nJj3HJ-Dyh-Vzukbkr-1" target="-3nJj3HJ-Dyh-Vzukbkr-4">
          <mxGeometry width="50" height="50" relative="1" as="geometry">
            <mxPoint x="454" y="270" as="sourcePoint" />
            <mxPoint x="504" y="220" as="targetPoint" />
          </mxGeometry>
        </mxCell>
      </root>
    </mxGraphModel>
  </diagram>
</mxfile>
